<svg width="18" height="18" viewBox="0 0 18 18" fill="none" xmlns="http://www.w3.org/2000/svg">
<path fill-rule="evenodd" clip-rule="evenodd" d="M14.9134 2.89162C14.5498 2.56117 13.9947 2.56117 13.6311 2.89162C13.6169 2.90459 13.5982 2.92297 13.5328 2.98837L13.2987 3.22247C13.2802 4.04308 13.9569 4.71976 14.7775 4.70125L15.0116 4.46716C15.077 4.40176 15.0954 4.38314 15.1084 4.36888C15.4388 4.00534 15.4388 3.45018 15.1084 3.08664C15.0954 3.07238 15.077 3.05377 15.0116 2.98837C14.9462 2.92297 14.9276 2.90459 14.9134 2.89162ZM13.8084 5.67037C13.1333 5.4068 12.5932 4.86669 12.3296 4.19158L10.5337 5.98748C9.91857 6.60265 9.68937 6.83858 9.53218 7.1162C9.37499 7.39383 9.2906 7.71175 9.0796 8.55576L8.95805 9.04195L9.44425 8.9204C10.2883 8.7094 10.6062 8.62501 10.8838 8.46782C11.1614 8.31063 11.3974 8.08143 12.0125 7.46626L13.8084 5.67037ZM12.8618 2.04525C13.6616 1.31825 14.8829 1.31825 15.6827 2.04525C15.7199 2.07907 15.7594 2.11861 15.8108 2.16995L15.8108 2.16996L15.8108 2.16999L15.8204 2.17959L15.83 2.1892L15.8301 2.18925C15.8814 2.24057 15.9209 2.28009 15.9548 2.3173C16.6817 3.11709 16.6817 4.33843 15.9548 5.13822C15.9209 5.17545 15.8814 5.21499 15.83 5.26633L15.8204 5.27593L12.8213 8.27504L12.7652 8.33112C12.2253 8.87125 11.8766 9.22009 11.4473 9.46314C11.0181 9.70619 10.5395 9.82572 9.79861 10.0108L9.79859 10.0108L9.79859 10.0108L9.72165 10.03L8.31077 10.3828C8.11588 10.4315 7.90972 10.3744 7.76768 10.2323C7.62563 10.0903 7.56853 9.88412 7.61725 9.68923L7.96997 8.27835L7.98919 8.20141C8.17427 7.46047 8.29381 6.98194 8.53686 6.55266C8.77992 6.12338 9.12875 5.77468 9.66888 5.23476L9.72496 5.1787L12.7241 2.17959L12.7337 2.17C12.785 2.11864 12.8246 2.07908 12.8618 2.04525ZM8.12905 1.63083L8.17207 1.63083H8.93459C9.25043 1.63083 9.50648 1.88687 9.50648 2.20272C9.50648 2.51857 9.25043 2.77461 8.93459 2.77461H8.17207C6.71807 2.77461 5.68511 2.77583 4.9015 2.88118C4.13433 2.98432 3.69234 3.17775 3.36963 3.50046C3.04692 3.82316 2.8535 4.26516 2.75035 5.03232C2.645 5.81594 2.64378 6.8489 2.64378 8.30289V9.82794C2.64378 11.2819 2.645 12.3149 2.75035 13.0985C2.8535 13.8657 3.04692 14.3077 3.36963 14.6304C3.69234 14.9531 4.13433 15.1465 4.9015 15.2496C5.68511 15.355 6.71807 15.3562 8.17207 15.3562H9.69711C11.1511 15.3562 12.1841 15.355 12.9677 15.2496C13.7348 15.1465 14.1768 14.9531 14.4995 14.6304C14.8223 14.3077 15.0157 13.8657 15.1188 13.0985C15.2242 12.3149 15.2254 11.2819 15.2254 9.82794V9.06541C15.2254 8.74957 15.4814 8.49352 15.7973 8.49352C16.1131 8.49352 16.3692 8.74957 16.3692 9.06541V9.82794V9.87095V9.87099C16.3692 11.2723 16.3692 12.3822 16.2524 13.2509C16.1322 14.1449 15.879 14.8685 15.3083 15.4391C14.7377 16.0098 14.0141 16.263 13.1201 16.3832C12.2514 16.5 11.1415 16.5 9.74016 16.5H9.74012H9.69711H8.17207H8.12905H8.12902C6.7277 16.5 5.61776 16.5 4.74909 16.3832C3.85509 16.263 3.1315 16.0098 2.56085 15.4391C1.99021 14.8685 1.73696 14.1449 1.61677 13.2509C1.49998 12.3822 1.49999 11.2723 1.5 9.87098V9.87095V9.82794V8.30289V8.25987V8.25985C1.49999 6.85853 1.49998 5.74859 1.61677 4.87992C1.73696 3.98592 1.99021 3.26232 2.56085 2.69168C3.1315 2.12104 3.85509 1.86779 4.74909 1.7476C5.61776 1.63081 6.72772 1.63082 8.12905 1.63083Z" fill="#6B5E4B"/>
</svg>
